<svg xmlns="http://www.w3.org/2000/svg" viewBox="0 0 64 64" role="img" aria-labelledby="title desc">
  <title id="title">AI Vidya for Bharat Favicon</title>
  <desc id="desc">Minimal icon combining a book and letter A for AI learning.</desc>
  <rect x="4" y="4" width="56" height="56" rx="14" fill="#dc2626"/>
  <path d="M17 18c0-2.2 1.8-4 4-4h11c3.7 0 7.1 1.8 9.2 4.8 2.1-3 5.5-4.8 9.2-4.8h1.4c1.1 0 2 .9 2 2v28.2c0 1.1-.9 2-2 2h-1.4c-3.3 0-6.4 1.6-8.3 4.2-.4.6-1.1.9-1.8.9s-1.4-.3-1.8-.9c-1.9-2.6-5-4.2-8.3-4.2H21c-2.2 0-4-1.8-4-4V18z" fill="#ffffff" opacity="0.96"/>
  <path d="M30.2 39.5h-2.6l4.7-12.8h2.9l4.7 12.8h-2.6l-1-2.9h-5.1l-1 2.9zm3.6-10.1-1.8 5.3h3.7l-1.9-5.3z" fill="#334155"/>
  <circle cx="47.6" cy="22.2" r="1.4" fill="#334155"/>
  <circle cx="50.6" cy="25.2" r="1.2" fill="#334155"/>
  <circle cx="47" cy="28.3" r="1" fill="#334155"/>
  <path d="M47.5 23.4l2 1.7m-1.4 2.6l2.1-1.8" stroke="#334155" stroke-width="1" stroke-linecap="round"/>
</svg>
